# xmcd
#
# Track frame offsets:
#	150
#	14900
#	27087
#	46002
#	60225
#	73915
#	86155
#	105065
#	119935
#	142712
#
# Disc length: 2050 seconds
#
# Revision: 3
# Processed by: cddbd v1.5.2PL0 Copyright (c) Steve Scherf et al.
# Submitted via: audiograbber 1.83.01
#
DISCID=8008000a
DTITLE=Al Gringo and The Original Psychobilly Krautboys On Moonshine - The New Ki
DTITLE=ds On The Ranch
DYEAR=1991
DGENRE=Country
TTITLE0=Smoke On The Water
TTITLE1=Stand By Me
TTITLE2=Don't Worry, Be Happy
TTITLE3=Summer Of '69
TTITLE4=Kiss
TTITLE5=La Isla Bonita
TTITLE6=Geronimo's Cadillac
TTITLE7=Paranoid
TTITLE8=Lookin' For Freedom
TTITLE9=Diana
EXTD=
EXTT0=
EXTT1=
EXTT2=
EXTT3=
EXTT4=
EXTT5=
EXTT6=
EXTT7=
EXTT8=
EXTT9=
PLAYORDER=
